<?xml version="1.0" standalone="no"?>
<!DOCTYPE svg PUBLIC "-//W3C//DTD SVG 20010904//EN"
 "http://www.w3.org/TR/2001/REC-SVG-20010904/DTD/svg10.dtd">
<svg version="1.0" xmlns="http://www.w3.org/2000/svg"
 width="978.000000pt" height="978.000000pt" viewBox="0 0 978.000000 978.000000"
 preserveAspectRatio="xMidYMid meet">
<metadata>
Created by potrace 1.11, written by Peter Selinger 2001-2013
</metadata>
<g transform="translate(0.000000,978.000000) scale(0.100000,-0.100000)"
fill="#000000" stroke="none">
<path d="M4847 9274 c-1 -1 -72 -4 -157 -8 -252 -11 -297 -16 -377 -46 -29
-11 -53 -17 -53 -14 0 4 -6 2 -13 -4 -7 -6 -39 -13 -72 -16 -56 -6 -97 -12
-102 -16 -2 -2 -6 -3 -10 -5 -5 -1 -15 -4 -23 -7 -8 -3 -46 -11 -85 -18 -87
-15 -135 -29 -135 -40 0 -5 -30 -18 -67 -31 -38 -12 -73 -26 -79 -30 -6 -5
-14 -6 -17 -2 -4 3 -7 1 -7 -5 0 -7 -3 -11 -7 -10 -30 7 -130 -29 -163 -59
-20 -19 -65 -37 -85 -34 -3 1 -14 -8 -25 -19 -11 -11 -28 -20 -38 -20 -10 0
-22 -3 -26 -7 -3 -4 -14 -8 -22 -9 -9 -1 -22 -12 -30 -23 -8 -11 -49 -37 -92
-58 -42 -21 -83 -43 -89 -49 -7 -7 -29 -22 -50 -35 -21 -13 -49 -34 -63 -46
-14 -13 -34 -26 -45 -29 -10 -4 -28 -17 -38 -31 -10 -13 -33 -31 -50 -40 -18
-9 -55 -40 -84 -69 -28 -30 -57 -54 -63 -54 -14 0 -80 -67 -80 -81 0 -5 -7 -9
-16 -9 -8 0 -13 -4 -9 -9 3 -5 -4 -12 -14 -16 -11 -3 -35 -25 -53 -48 -17 -23
-51 -59 -74 -80 -24 -22 -46 -51 -49 -67 -3 -15 -20 -38 -37 -51 -46 -35 -78
-68 -78 -81 0 -17 -43 -78 -55 -78 -6 0 -18 -15 -26 -32 -26 -54 -64 -123 -70
-128 -23 -19 -109 -175 -109 -197 0 -7 -6 -16 -13 -20 -22 -14 -54 -66 -63
-103 -10 -45 -8 -39 -27 -82 -10 -21 -17 -47 -17 -58 0 -11 -9 -29 -20 -40
-11 -11 -17 -20 -14 -20 3 0 -1 -7 -10 -15 -8 -8 -20 -41 -26 -73 -7 -31 -17
-63 -22 -69 -6 -7 -7 -13 -3 -13 4 0 3 -6 -3 -12 -5 -7 -12 -26 -15 -43 -13
-82 -20 -104 -42 -127 -25 -27 -31 -43 -40 -108 -4 -24 -12 -53 -17 -65 -6
-11 -11 -21 -10 -22 1 -2 2 -4 1 -5 0 -2 -2 -12 -4 -23 -2 -11 -6 -31 -9 -45
-3 -14 -7 -48 -10 -77 -7 -70 -17 -126 -26 -138 -26 -35 -38 -122 -47 -335
-14 -351 -3 -816 22 -935 4 -16 8 -40 10 -53 2 -13 8 -28 13 -35 13 -17 21
-56 27 -129 8 -93 14 -128 29 -178 8 -25 17 -70 20 -100 8 -69 36 -161 47
-154 8 4 21 -35 34 -106 4 -19 15 -60 25 -90 10 -30 21 -75 25 -99 4 -28 16
-52 34 -70 19 -19 30 -42 34 -74 4 -26 13 -57 21 -70 7 -12 19 -46 26 -75 7
-31 23 -64 37 -78 13 -13 31 -41 39 -62 9 -20 33 -72 55 -114 22 -43 36 -78
32 -78 -4 0 -1 -6 8 -13 9 -7 30 -41 48 -77 18 -36 48 -82 67 -104 19 -21 34
-44 34 -50 0 -14 66 -107 105 -148 14 -15 25 -31 25 -37 0 -5 3 -11 8 -13 4
-1 24 -28 45 -59 56 -84 49 -141 -24 -179 -68 -37 -142 -49 -279 -47 -74 1
-142 6 -150 12 -8 5 -19 10 -25 11 -5 1 -23 5 -40 9 -16 3 -43 9 -60 12 -16 3
-34 6 -40 8 -5 1 -28 5 -50 9 -22 4 -55 14 -73 23 -18 8 -49 17 -68 20 -20 3
-48 19 -67 38 -20 20 -47 35 -71 39 -22 4 -51 16 -64 27 -14 10 -34 19 -46 19
-23 1 -56 22 -56 36 -1 15 -43 41 -78 48 -17 4 -32 11 -32 14 0 4 -15 13 -32
21 -18 8 -44 26 -58 40 -14 14 -42 35 -63 45 -20 11 -37 22 -37 26 0 5 -12 11
-26 14 -24 7 -74 51 -74 66 0 4 -17 15 -37 23 -36 14 -113 81 -113 98 0 4 -16
16 -35 28 -20 11 -39 29 -43 38 -16 39 -48 83 -58 83 -16 0 -84 66 -77 74 4 3
-1 6 -10 6 -10 0 -17 6 -17 14 0 8 -15 17 -34 20 -18 4 -45 17 -60 29 -15 13
-42 24 -63 25 -21 2 -40 6 -43 10 -13 19 -154 -18 -164 -43 -3 -8 -12 -15 -20
-15 -23 0 -64 -49 -83 -98 -9 -23 -18 -40 -21 -38 -2 3 -14 -11 -25 -32 -19
-34 -20 -55 -21 -232 0 -185 1 -198 24 -255 14 -33 28 -62 31 -65 3 -3 12 -30
18 -60 7 -30 21 -72 32 -92 11 -21 20 -41 21 -45 2 -18 12 -36 34 -58 12 -12
28 -41 34 -63 6 -23 17 -47 24 -55 7 -7 20 -26 29 -43 8 -16 31 -47 51 -69 20
-21 36 -44 36 -51 0 -15 87 -104 101 -104 6 0 8 -4 5 -9 -6 -9 113 -131 198
-205 43 -36 45 -41 43 -87 0 -27 -5 -49 -10 -49 -4 0 -5 -4 -2 -10 3 -5 2 -10
-4 -10 -5 0 -12 -13 -16 -29 -3 -16 -13 -35 -21 -42 -8 -6 -14 -18 -14 -25 0
-8 -5 -14 -10 -14 -6 0 -9 -3 -8 -7 1 -5 -4 -20 -10 -34 -20 -50 -13 -289 9
-289 5 0 9 -7 9 -15 0 -8 5 -15 11 -15 5 0 8 -4 5 -9 -4 -5 -1 -11 4 -13 6 -2
13 -17 16 -33 7 -46 15 -69 28 -85 7 -8 17 -36 24 -62 7 -27 20 -57 29 -67 32
-35 40 -47 47 -69 4 -12 11 -22 17 -22 5 0 15 -16 23 -35 8 -19 40 -58 70 -87
31 -29 56 -58 56 -65 0 -7 9 -17 20 -23 11 -6 20 -9 20 -6 0 6 43 -30 84 -70
17 -17 47 -37 66 -44 19 -8 46 -22 59 -32 13 -10 31 -18 40 -18 9 0 31 -14 49
-31 18 -17 45 -33 60 -35 15 -3 45 -13 67 -24 22 -10 66 -25 97 -34 31 -9 60
-21 63 -26 3 -6 14 -10 24 -10 9 0 22 -5 29 -12 14 -14 18 -15 124 -32 21 -3
57 -11 80 -16 73 -18 81 -19 123 -25 22 -4 74 -17 115 -30 114 -35 133 -37
440 -40 258 -2 333 1 410 20 14 4 34 8 45 10 11 2 37 10 57 19 21 9 54 19 74
22 20 3 44 7 53 10 111 27 144 34 177 38 45 5 72 14 94 31 16 13 94 45 122 50
10 2 32 10 50 19 18 8 50 20 70 27 21 7 50 24 65 37 23 20 79 51 103 57 14 4
86 41 96 50 6 6 22 17 34 25 13 8 32 25 43 37 11 12 33 27 51 34 17 8 55 37
85 66 30 29 60 53 66 53 6 0 25 17 41 37 37 47 84 89 95 85 5 -1 9 4 9 11 0 6
25 36 55 65 49 48 59 62 57 83 -1 3 21 28 49 55 27 26 49 56 49 66 0 10 4 18
8 18 5 0 14 16 22 35 8 19 17 35 22 35 5 0 14 12 20 28 7 15 25 43 40 63 15
20 30 51 33 69 7 41 32 90 46 90 6 0 8 4 4 9 -3 5 -1 12 5 16 6 4 8 10 5 14
-2 5 10 26 29 47 29 34 38 38 84 40 33 2 52 -1 52 -8 0 -6 3 -8 7 -5 12 13 78
-68 81 -99 1 -15 16 -45 32 -66 17 -20 30 -45 30 -55 0 -11 14 -41 31 -67 16
-27 28 -51 25 -54 -3 -2 15 -27 40 -55 25 -28 43 -56 40 -63 -3 -7 5 -23 17
-36 30 -33 68 -80 92 -114 11 -16 40 -51 65 -77 72 -78 95 -98 103 -91 3 3 15
-10 28 -28 26 -37 79 -88 93 -88 5 0 28 -20 52 -45 23 -25 51 -45 62 -45 11 0
43 -22 72 -49 28 -26 69 -54 92 -62 22 -7 42 -18 45 -25 2 -7 20 -15 39 -18
19 -4 34 -11 34 -16 0 -6 4 -10 10 -10 5 0 20 -11 33 -24 13 -12 41 -26 63
-30 21 -4 49 -14 62 -22 22 -15 32 -18 92 -30 14 -3 32 -11 40 -18 28 -23 115
-53 174 -60 32 -4 66 -10 75 -15 9 -5 34 -12 56 -16 114 -19 112 -19 148 -33
16 -7 34 -12 42 -12 8 0 17 -5 20 -10 4 -6 10 -8 13 -6 4 2 33 -1 64 -9 61
-14 617 -14 673 0 17 4 39 8 50 9 11 0 22 4 25 8 3 4 17 8 30 10 14 2 30 6 35
9 15 9 63 20 113 25 24 2 53 9 63 15 10 5 19 7 19 3 0 -3 7 -1 15 6 8 7 15 10
15 8 0 -3 21 -1 48 4 26 4 67 11 91 14 42 5 101 31 101 44 0 4 23 12 51 19 28
8 63 20 78 27 14 8 33 14 41 14 8 0 33 9 55 19 22 10 44 18 48 18 5 1 21 12
35 26 27 24 60 42 75 39 4 -1 7 2 7 7 0 4 19 16 43 25 24 9 58 30 75 47 18 17
32 28 32 24 0 -5 10 3 23 17 22 25 63 52 82 53 6 1 9 6 7 13 -1 7 2 12 8 12 5
0 10 5 10 11 0 8 32 47 96 113 5 6 27 45 46 86 20 41 48 86 62 99 14 14 26 33
26 43 0 10 4 26 9 36 9 18 30 77 36 102 2 8 15 58 30 110 28 106 31 170 10
216 -8 17 -17 49 -21 70 -3 22 -12 46 -20 55 -19 21 -36 81 -38 136 -2 39 2
46 52 95 146 144 281 290 288 310 3 10 9 18 13 18 4 0 16 17 27 37 10 21 29
48 41 62 11 13 27 35 35 50 7 14 16 28 19 31 4 3 17 33 29 67 12 35 26 63 30
63 10 0 50 94 50 119 0 11 5 23 11 26 15 10 30 53 36 105 3 25 8 47 12 50 31
25 46 96 45 220 -1 109 -7 145 -33 181 -11 14 -21 41 -24 60 -6 42 -17 69 -27
69 -5 0 -12 9 -15 20 -13 41 -113 115 -165 122 -14 2 -28 7 -31 12 -8 10 -159
-22 -159 -34 0 -5 -22 -16 -48 -24 -30 -10 -54 -26 -62 -40 -7 -13 -24 -30
-39 -37 -28 -14 -81 -66 -81 -81 0 -12 -29 -40 -62 -61 -15 -9 -35 -32 -44
-49 -18 -35 -49 -64 -78 -74 -19 -6 -48 -29 -102 -82 -19 -17 -38 -32 -42 -32
-5 0 -17 -8 -28 -18 -10 -10 -34 -24 -52 -31 -18 -8 -42 -27 -53 -42 -11 -16
-26 -29 -32 -29 -20 0 -160 -72 -202 -105 -22 -16 -59 -38 -83 -47 -23 -10
-60 -25 -82 -35 -22 -9 -40 -20 -40 -25 0 -5 -4 -7 -8 -4 -5 3 -18 -3 -28 -13
-21 -19 -176 -71 -234 -78 -19 -2 -46 -8 -60 -12 -14 -4 -33 -7 -42 -5 -10 1
-18 -1 -18 -5 0 -4 -6 -8 -12 -9 -7 0 -31 -5 -53 -11 -49 -13 -294 -10 -315 4
-8 5 -17 10 -20 10 -14 2 -67 35 -81 51 -9 11 -17 40 -18 65 -2 40 2 49 26 70
15 13 40 42 55 64 15 22 39 52 53 67 14 15 25 30 25 34 0 4 15 26 34 49 19 22
36 50 38 60 1 11 13 31 25 45 12 14 31 36 42 49 11 13 18 28 15 32 -3 5 0 9 6
9 6 0 8 5 5 10 -3 6 -1 10 4 10 6 0 11 5 11 10 0 6 18 42 39 80 22 39 37 70
34 70 -3 0 1 8 9 18 16 18 41 72 53 112 4 14 20 35 34 47 14 13 22 23 17 23
-5 0 -1 9 9 20 10 11 16 20 13 20 -4 0 0 20 7 44 8 24 11 47 8 50 -3 3 1 8 10
12 10 3 19 24 23 52 8 54 19 80 47 104 11 10 21 34 24 53 2 20 10 56 19 81 8
24 23 83 34 131 10 47 23 89 28 92 14 9 29 42 36 81 3 19 8 44 10 55 2 11 7
42 10 69 4 27 9 53 12 58 3 4 7 17 10 28 2 11 6 28 8 38 2 9 7 53 10 97 9 105
14 133 28 159 13 22 14 25 23 68 12 57 15 97 22 248 12 258 7 860 -8 860 -3 0
-5 16 -4 37 0 25 -6 43 -21 58 -24 24 -34 49 -39 98 -3 29 -7 52 -19 115 -3
12 -7 26 -10 30 -3 5 -8 31 -11 58 -8 68 -45 185 -61 191 -7 3 -16 26 -19 51
-4 26 -15 72 -25 102 -35 109 -40 127 -40 141 0 8 -13 29 -30 47 -16 18 -30
40 -30 48 0 9 -11 44 -25 79 -14 35 -28 74 -30 87 -3 13 -18 35 -34 49 -17 14
-32 38 -35 52 -8 45 -17 67 -27 67 -5 0 -9 5 -9 11 0 6 -9 24 -21 40 -11 16
-18 29 -14 29 3 0 -10 21 -30 46 -19 26 -35 51 -35 56 0 9 -45 81 -68 108 -7
8 -11 17 -10 20 2 5 -5 14 -60 78 -12 15 -25 34 -27 44 -3 9 -17 23 -30 32
-14 9 -38 40 -55 69 -16 28 -43 61 -59 72 -16 10 -42 38 -56 62 -15 23 -45 53
-66 67 -21 15 -50 44 -64 66 -14 22 -30 40 -35 40 -5 0 -20 9 -32 19 -13 11
-33 29 -46 40 -13 11 -23 23 -23 28 0 4 -12 15 -26 23 -15 8 -38 27 -53 42
-15 15 -30 25 -33 21 -4 -3 -9 2 -13 11 -3 9 -10 16 -15 16 -10 0 -39 22 -76
57 -13 13 -26 23 -28 23 -3 0 -9 0 -13 0 -5 0 -28 18 -52 40 -24 22 -51 40
-61 40 -16 0 -86 41 -99 58 -11 14 -66 49 -100 62 -64 25 -135 62 -157 83 -13
11 -23 17 -23 14 0 -4 -10 -1 -22 7 -13 8 -39 17 -58 21 -19 4 -55 17 -80 28
-25 11 -50 22 -56 23 -31 5 -59 18 -77 35 -19 17 -78 34 -162 46 -22 3 -48 10
-58 15 -24 12 -50 17 -122 24 -33 3 -63 10 -66 16 -4 6 -11 8 -16 5 -5 -3 -21
0 -36 8 -15 8 -27 12 -27 9 0 -3 -10 1 -22 7 -13 7 -39 14 -58 15 -19 2 -48 5
-65 8 -54 10 -468 27 -478 20z"/>
</g>
</svg>
